<svg xmlns="http://www.w3.org/2000/svg" viewBox="0 0 1200 675" role="img" aria-label="ai-tutor cover">
  <defs>
    <linearGradient id="bg" x1="0" y1="0" x2="1" y2="1">
      <stop offset="0" stop-color="#0f172a" />
      <stop offset="1" stop-color="#312e81" />
    </linearGradient>
    <radialGradient id="glow" cx="0.7" cy="0.2" r="0.7">
      <stop offset="0" stop-color="#a78bfa" stop-opacity="0.6" />
      <stop offset="1" stop-color="#a78bfa" stop-opacity="0" />
    </radialGradient>
    <pattern id="dots" width="28" height="28" patternUnits="userSpaceOnUse">
      <circle cx="2" cy="2" r="1.2" fill="#312e81" />
    </pattern>
  </defs>
  <rect width="1200" height="675" fill="url(#bg)" />
  <rect width="1200" height="675" fill="url(#glow)" />
  <rect width="1200" height="675" fill="url(#dots)" opacity="0.3" />

  <g fill="rgba(15, 23, 42, 0.92)" stroke="#a78bfa" stroke-width="2">
    <rect x="160" y="180" width="240" height="320" rx="18" />
    <rect x="450" y="220" width="220" height="220" rx="18" />
    <rect x="720" y="200" width="240" height="260" rx="18" />
  </g>
  <g stroke="#c7d2fe" stroke-width="2" opacity="0.7">
    <path d="M200 240 H360" />
    <path d="M200 290 H360" />
    <path d="M200 340 H320" />
    <path d="M490 270 H620" />
    <path d="M490 320 H590" />
    <path d="M760 260 H900" />
    <path d="M760 310 H900" />
    <path d="M760 360 H840" />
  </g>
  <g fill="#22d3ee" opacity="0.7">
    <circle cx="560" cy="520" r="6" />
    <circle cx="600" cy="520" r="6" />
    <circle cx="640" cy="520" r="6" />
  </g>

  <rect x="90" y="60" width="300" height="92" rx="20" fill="rgba(15, 23, 42, 0.85)" stroke="#a78bfa" stroke-width="2" />
  <text x="120" y="112" fill="#e2e8f0" font-family="JetBrains Mono, Menlo, monospace" font-size="32" font-weight="600">
    ai-tutor
  </text>
  <text x="120" y="148" fill="#c7d2fe" font-family="JetBrains Mono, Menlo, monospace" font-size="18">
    document to quiz generation
  </text>

  <rect x="860" y="520" width="260" height="56" rx="16" fill="rgba(167, 139, 250, 0.18)" stroke="#a78bfa" />
  <text x="884" y="555" fill="#e2e8f0" font-family="JetBrains Mono, Menlo, monospace" font-size="16">
    retrieval / quizzes / UX
  </text>
</svg>
