<svg xmlns="http://www.w3.org/2000/svg" viewBox="0 0 1200 675" role="img" aria-label="pubmed_analysis cover">
  <defs>
    <linearGradient id="bg" x1="0" y1="0" x2="1" y2="1">
      <stop offset="0" stop-color="#0f172a" />
      <stop offset="1" stop-color="#7c2d12" />
    </linearGradient>
    <radialGradient id="glow" cx="0.2" cy="0.2" r="0.8">
      <stop offset="0" stop-color="#fb7185" stop-opacity="0.6" />
      <stop offset="1" stop-color="#fb7185" stop-opacity="0" />
    </radialGradient>
    <pattern id="dots" width="26" height="26" patternUnits="userSpaceOnUse">
      <circle cx="2" cy="2" r="1.2" fill="#7c2d12" />
    </pattern>
  </defs>
  <rect width="1200" height="675" fill="url(#bg)" />
  <rect width="1200" height="675" fill="url(#glow)" />
  <rect width="1200" height="675" fill="url(#dots)" opacity="0.35" />

  <g stroke="#fdba74" stroke-width="1.5" opacity="0.6">
    <path d="M280 260 L520 210" />
    <path d="M520 210 L760 280" />
    <path d="M760 280 L940 220" />
    <path d="M280 260 L360 420" />
    <path d="M520 210 L620 380" />
    <path d="M760 280 L860 420" />
  </g>
  <g fill="rgba(15, 23, 42, 0.92)" stroke="#fb7185" stroke-width="2">
    <circle cx="280" cy="260" r="60" />
    <circle cx="520" cy="210" r="45" />
    <circle cx="760" cy="280" r="55" />
    <circle cx="940" cy="220" r="40" />
    <circle cx="360" cy="420" r="38" />
    <circle cx="620" cy="380" r="42" />
    <circle cx="860" cy="420" r="36" />
  </g>
  <g fill="#fed7aa">
    <circle cx="280" cy="260" r="6" />
    <circle cx="520" cy="210" r="6" />
    <circle cx="760" cy="280" r="6" />
    <circle cx="940" cy="220" r="6" />
    <circle cx="360" cy="420" r="6" />
    <circle cx="620" cy="380" r="6" />
    <circle cx="860" cy="420" r="6" />
  </g>

  <rect x="90" y="60" width="360" height="92" rx="20" fill="rgba(15, 23, 42, 0.85)" stroke="#fb7185" stroke-width="2" />
  <text x="120" y="112" fill="#fff7ed" font-family="JetBrains Mono, Menlo, monospace" font-size="32" font-weight="600">
    pubmed_analysis
  </text>
  <text x="120" y="148" fill="#fed7aa" font-family="JetBrains Mono, Menlo, monospace" font-size="18">
    citation graph + NLP analytics
  </text>

  <rect x="860" y="520" width="260" height="56" rx="16" fill="rgba(251, 113, 133, 0.18)" stroke="#fb7185" />
  <text x="884" y="555" fill="#fff7ed" font-family="JetBrains Mono, Menlo, monospace" font-size="16">
    graph scale / insights
  </text>
</svg>
