<svg xmlns="http://www.w3.org/2000/svg" viewBox="0 0 1200 675" role="img" aria-label="slackbot_bedrock cover">
  <defs>
    <linearGradient id="bg" x1="0" y1="0" x2="1" y2="1">
      <stop offset="0" stop-color="#0b1120" />
      <stop offset="1" stop-color="#0f766e" />
    </linearGradient>
    <radialGradient id="glow" cx="0.2" cy="0.2" r="0.7">
      <stop offset="0" stop-color="#2dd4bf" stop-opacity="0.6" />
      <stop offset="1" stop-color="#2dd4bf" stop-opacity="0" />
    </radialGradient>
    <pattern id="grid" width="36" height="36" patternUnits="userSpaceOnUse">
      <path d="M36 0 H0 V36" fill="none" stroke="#134e4a" stroke-width="1" />
    </pattern>
  </defs>
  <rect width="1200" height="675" fill="url(#bg)" />
  <rect width="1200" height="675" fill="url(#glow)" />
  <rect width="1200" height="675" fill="url(#grid)" opacity="0.35" />

  <g fill="rgba(15, 23, 42, 0.9)" stroke="#34d399" stroke-width="2">
    <rect x="140" y="200" width="250" height="150" rx="20" />
    <rect x="430" y="140" width="250" height="150" rx="20" />
    <rect x="720" y="200" width="250" height="150" rx="20" />
  </g>
  <g stroke="#34d399" stroke-width="2" fill="none">
    <path d="M265 350 C280 420, 420 420, 440 360" />
    <path d="M555 290 C600 350, 720 350, 755 310" />
    <path d="M575 420 H790" />
  </g>
  <g fill="#99f6e4">
    <circle cx="260" cy="260" r="6" />
    <circle cx="555" cy="200" r="6" />
    <circle cx="845" cy="260" r="6" />
  </g>

  <rect x="90" y="60" width="460" height="92" rx="20" fill="rgba(15, 23, 42, 0.85)" stroke="#2dd4bf" stroke-width="2" />
  <text x="120" y="112" fill="#ecfeff" font-family="JetBrains Mono, Menlo, monospace" font-size="32" font-weight="600">
    slackbot_bedrock
  </text>
  <text x="120" y="148" fill="#99f6e4" font-family="JetBrains Mono, Menlo, monospace" font-size="18">
    slack workflow to LLM orchestration
  </text>

  <rect x="860" y="520" width="260" height="56" rx="16" fill="rgba(45, 212, 191, 0.14)" stroke="#2dd4bf" />
  <text x="884" y="555" fill="#ecfeff" font-family="JetBrains Mono, Menlo, monospace" font-size="16">
    tracing / routing / guardrails
  </text>
</svg>
